Coordinates
version=1
nRows=5
nColumns=40
inDegrees=yes

Units are S.I. units (second, meters, Newtons, ...)
Angles are in degrees.

endheader
time	pelvis_tilt	pelvis_list	pelvis_rotation	pelvis_tx	pelvis_ty	pelvis_tz	hip_flexion_r	hip_adduction_r	hip_rotation_r	knee_angle_r	knee_angle_r_beta	ankle_angle_r	subtalar_angle_r	mtp_angle_r	hip_flexion_l	hip_adduction_l	hip_rotation_l	knee_angle_l	knee_angle_l_beta	ankle_angle_l	subtalar_angle_l	mtp_angle_l	lumbar_extension	lumbar_bending	lumbar_rotation	arm_flex_r	arm_add_r	arm_rot_r	elbow_flex_r	pro_sup_r	wrist_flex_r	wrist_dev_r	arm_flex_l	arm_add_l	arm_rot_l	elbow_flex_l	pro_sup_l	wrist_flex_l	wrist_dev_l
     57.26442857	     -3.68267055	     -5.84371506	      2.87464790	      1.00095166	      0.93262365	      0.46504300	      4.19864880	      6.68621929	    -20.84073695	      6.53312572	      6.53312572	      8.60522803	      4.04600093	     -6.46017196	     34.15912850	    -12.57798437	     -1.16340910	     42.06307102	     42.06307102	      8.63435298	    -16.55540352	     11.80712180	     -8.49928446	      7.39274762	      4.17404913	     32.54389440	    -16.04747823	     -4.97635430	     66.87925636	     45.14332195	      0.00000000	      0.00000000	     -2.72335149	     -6.50192972	      1.78777764	     21.42969859	     45.61603195	      0.00000000	      0.00000000
     57.27635714	     -3.86076993	     -5.88972195	      3.00328552	      0.99972702	      0.93166375	      0.46464643	      3.79821521	      6.79097005	    -20.93642536	      6.17616136	      6.17616136	      8.75661177	      4.24138378	     -7.15050546	     34.20951732	    -12.24577911	     -1.30087618	     38.43037888	     38.43037888	      8.37282907	    -15.73971859	     10.91500141	     -8.46676381	      7.47575643	      4.69191296	     33.16260153	    -16.90559871	     -4.90243288	     70.89804688	     45.03002151	      0.00000000	      0.00000000	     -4.26481349	     -6.76039096	      2.89117297	     22.95528613	     45.32503966	      0.00000000	      0.00000000
     57.28828571	     -4.02053000	     -5.91313450	      3.18422620	      0.99848552	      0.93075760	      0.46409757	      3.40589772	      6.86375004	    -20.96107244	      5.88686320	      5.88686320	      9.06935688	      4.25472733	     -7.31200659	     34.23289162	    -11.83687477	     -1.38630339	     34.93804730	     34.93804730	      8.57138660	    -14.52404180	     11.15503928	     -8.36055282	      7.52560460	      4.54409130	     34.75883586	    -16.81964306	     -5.01967340	     72.51161880	     44.99140970	      0.00000000	      0.00000000	     -5.45166857	     -6.80887058	      3.11405929	     22.72168648	     45.25748709	      0.00000000	      0.00000000
     57.30021429	     -4.29941495	     -6.25525082	      3.42028207	      0.99710977	      0.92935749	      0.46342098	      3.26575234	      7.23490319	    -21.09018587	      5.77291456	      5.77291456	      9.39307150	      4.20239263	     -7.48693204	     34.62245216	    -11.65915863	     -1.11782753	     31.90155674	     31.90155674	      8.83909529	    -13.23154754	     11.39034816	     -8.04064172	      7.95714522	      4.71802361	     36.33248582	    -17.24387397	     -5.24590759	     73.52088839	     44.97417757	      0.00000000	      0.00000000	     -6.42347104	     -6.76103965	      3.15887477	     22.53534658	     45.22884821	      0.00000000	      0.00000000
     57.31214286	     -4.29549057	     -6.12201284	      3.66632759	      0.99618606	      0.92868195	      0.46250776	      2.53792224	      7.16832408	    -21.25738824	      5.21504935	      5.21504935	      9.48681733	      4.48798990	     -8.15952955	     34.25579977	    -11.11003185	     -1.48632062	     28.49858683	     28.49858683	      8.36329630	    -11.65018841	      9.90039886	     -8.28937768	      7.84691119	      4.85073288	     36.61479408	    -17.49632856	     -5.57917123	     78.77671128	     44.94203191	      0.00000000	      0.00000000	     -8.05478877	     -7.58108484	      8.19864453	     24.55950446	     44.37829714	      0.00000000	      0.00000000
